# This file uses centimeters as units for non-parametric coordinates.

g default
v 16.537349 159.262955 34.378943
v 16.811993 159.110868 34.124517
v 16.779924 159.231179 34.112291
v 13.869359 159.612272 37.311511
v 14.234870 157.988683 37.553548
v 17.047741 158.225983 34.214302
v 9.388380 160.122993 41.406022
v 9.732509 157.978259 41.858287
v 14.735461 155.074676 37.848645
v 17.654869 155.320951 34.382923
v 10.062563 155.063839 42.316412
v 4.586169 160.601534 45.042264
v 4.793670 158.294538 45.657357
v 4.936678 155.392121 46.259365
v 15.078997 152.170576 38.003419
v 18.093417 152.424900 34.424916
v -0.503720 158.932569 48.890845
v -0.561358 156.054306 49.615324
v 10.254018 152.159391 42.616612
v -0.532644 161.047925 48.222037
v -6.076139 159.882277 51.507779
v -6.344831 157.039975 52.331363
v 4.961303 152.498370 46.687891
v 15.264128 149.287879 38.017314
v 18.361670 149.549206 34.340123
v -5.968126 161.461716 50.940389
v -10.553790 157.950841 53.763047
v -10.131514 160.759865 52.887197
v -0.715667 153.182117 50.153077
v 4.867455 149.624712 46.941243
v 10.306106 149.276382 42.757685
v -10.005676 161.728373 52.514734
v -6.687367 154.199876 52.957519
v -0.966058 150.327319 50.501967
v 10.218627 146.426240 42.739120
v 15.290123 146.437969 37.890240
v 18.458560 146.705276 34.128890
v -11.033329 155.140363 54.435775
v 4.655497 146.782511 47.018414
v -11.568209 152.339566 54.902769
v -7.102422 151.373115 53.383741
v -1.311528 147.501169 50.660643
v 15.156871 143.632076 37.622721
v 9.991917 143.620095 42.560953
v 18.383700 143.904297 33.792051
v -7.588329 148.570938 53.608369
v 4.326269 143.982970 46.919102
v -12.156331 149.559499 55.162157
v -1.750712 144.714879 50.628460
v 14.864914 140.881280 37.215793
v 9.626888 140.869137 42.223902
v 18.137401 141.157348 33.330931
v -12.795385 146.811112 55.212921
v -8.143201 145.804345 53.630500
v 3.881067 141.237088 46.643709
v -8.764816 143.084277 53.450072
v -2.281895 141.979369 50.405542
v 9.124963 138.184158 41.729284
v 14.415399 138.196405 36.671081
v 17.720618 138.475252 32.747349
v -13.482824 144.105289 55.054881
v 3.321662 138.555811 46.193321
v 13.810095 135.588102 35.990717
v -9.450740 140.421444 53.067776
v -2.902961 139.305511 49.992775
v 17.135014 135.868595 32.043608
v 8.488124 135.575773 41.079062
v -14.215956 141.452677 54.688629
v -10.198272 137.826393 52.485112
v -3.611463 136.703809 49.391816
v 2.650254 135.949634 45.569704
v 13.051391 133.066621 35.177402
v -4.404612 134.184560 48.604995
v 16.382883 133.347684 31.222481
v 7.718894 133.054294 40.275808
v 1.869491 133.428900 44.775336
v -14.991869 138.863748 54.115642
v -11.004440 135.309369 51.704421
v 12.142286 130.641964 34.234342
v 0.982443 131.003511 43.813324
v 6.820317 130.629635 39.322686
v -5.279272 131.757674 47.635433
v 15.467212 130.922469 30.287227
v 5.795923 128.311387 38.223451
v -15.807515 136.348766 53.338164
v -0.007381 128.683004 42.687484
v -11.866079 132.880243 50.728734
v 11.086367 128.323655 33.165251
v -6.231995 129.432735 46.486950
v -12.779782 130.548674 49.561941
v 14.391583 128.602479 29.241517
v 4.649756 126.108686 36.982445
v 9.887785 126.120825 31.974346
v -16.659677 133.917636 52.359263
v -1.096055 126.476653 41.402269
v -13.741951 128.323802 48.208617
v -7.259014 127.218934 45.164099
v 13.160272 126.396893 28.089484
v 8.551296 124.042186 30.666338
v -17.544985 131.579911 51.182807
v -8.356294 125.124966 43.672078
v 11.778120 124.314397 26.835666
v 3.386334 124.030221 35.604566
v -2.279307 124.393065 39.962726
v -18.459957 129.344814 49.813424
v -14.748773 126.214462 46.674129
v 7.082170 122.095994 29.246393
v -3.552467 122.440486 38.374541
v -9.519490 123.159178 42.016779
v 10.250607 122.363279 25.485034
v 2.010661 122.084225 34.095258
v -19.400964 127.221211 48.256539
v -15.796302 124.228926 44.964504
v 5.486176 120.289863 27.720087
v -20.364292 125.217481 46.518300
v 0.528143 120.278345 32.460458
v -4.910503 120.626663 36.644011
v -10.744007 121.329250 40.204746
v 8.583719 120.551165 24.042897
v -16.880376 122.375076 43.086513
v 3.769651 118.630949 26.093478
v -21.346161 123.341503 44.605535
v -6.348045 118.958702 34.777928
v -1.055339 118.619750 30.706651
v -12.025018 119.642448 38.243120
v 6.784070 118.885243 22.514954
v -22.342681 121.600695 42.525815
v -17.996715 120.660218 41.047562
v -2.733558 117.114924 28.840725
v -7.859440 117.443216 32.783681
v 1.939343 117.125785 24.372960
v -19.140947 119.091090 38.855694
v -13.357474 118.105400 36.139643
v 4.858750 117.372048 20.907235
v -23.349913 120.001940 40.287359
v -4.499881 115.769888 26.870069
v 0.002487 115.780322 22.565332
v -9.438709 116.086166 30.669132
v -14.736109 116.724199 33.902623
v 2.815360 116.017616 19.226100
v -24.363894 118.551516 37.898980
v -20.308523 117.673918 36.519556
v -1.132380 115.122248 21.513063
v -5.860157 114.901053 25.347689
v -10.744235 115.136832 28.897708
v 2.069590 115.605361 18.620730
v -24.716011 118.102569 37.023173
v -20.969864 116.971702 35.141949
v -15.781183 115.825989 32.163697
v -22.132237 153.062048 4.061493
v -20.744223 157.760761 5.581485
v -25.021992 153.335642 6.043124
v -23.508009 158.017876 7.474393
vt 0.427278 0.312722
vt 0.426097 0.313903
vt 0.426087 0.313074
vt 0.440000 0.308851
vt 0.440000 0.320000
vt 0.425918 0.320000
vt 0.460000 0.305274
vt 0.460000 0.320000
vt 0.440000 0.340000
vt 0.425918 0.340000
vt 0.460000 0.340000
vt 0.480000 0.304088
vt 0.480000 0.320000
vt 0.480000 0.340000
vt 0.440000 0.360000
vt 0.425918 0.360000
vt 0.500000 0.320000
vt 0.500000 0.340000
vt 0.460000 0.360000
vt 0.500000 0.305274
vt 0.520000 0.320000
vt 0.520000 0.340000
vt 0.480000 0.360000
vt 0.440000 0.380000
vt 0.425918 0.380000
vt 0.520000 0.308851
vt 0.534082 0.340000
vt 0.534082 0.320000
vt 0.500000 0.360000
vt 0.480000 0.380000
vt 0.460000 0.380000
vt 0.534093 0.313074
vt 0.520000 0.360000
vt 0.500000 0.380000
vt 0.460000 0.400000
vt 0.440000 0.400000
vt 0.425918 0.400000
vt 0.534082 0.360000
vt 0.480000 0.400000
vt 0.534082 0.380000
vt 0.520000 0.380000
vt 0.500000 0.400000
vt 0.440000 0.420000
vt 0.460000 0.420000
vt 0.425918 0.420000
vt 0.520000 0.400000
vt 0.480000 0.420000
vt 0.534082 0.400000
vt 0.500000 0.420000
vt 0.440000 0.440000
vt 0.460000 0.440000
vt 0.425918 0.440000
vt 0.534082 0.420000
vt 0.520000 0.420000
vt 0.480000 0.440000
vt 0.520000 0.440000
vt 0.500000 0.440000
vt 0.460000 0.460000
vt 0.440000 0.460000
vt 0.425918 0.460000
vt 0.534082 0.440000
vt 0.480000 0.460000
vt 0.440000 0.480000
vt 0.520000 0.460000
vt 0.500000 0.460000
vt 0.425918 0.480000
vt 0.460000 0.480000
vt 0.534082 0.460000
vt 0.520000 0.480000
vt 0.500000 0.480000
vt 0.480000 0.480000
vt 0.440000 0.500000
vt 0.500000 0.500000
vt 0.425918 0.500000
vt 0.460000 0.500000
vt 0.480000 0.500000
vt 0.534082 0.480000
vt 0.520000 0.500000
vt 0.440000 0.520000
vt 0.480000 0.520000
vt 0.460000 0.520000
vt 0.500000 0.520000
vt 0.425918 0.520000
vt 0.460000 0.540000
vt 0.534082 0.500000
vt 0.480000 0.540000
vt 0.520000 0.520000
vt 0.440000 0.540000
vt 0.500000 0.540000
vt 0.520000 0.540000
vt 0.425918 0.540000
vt 0.460000 0.560000
vt 0.440000 0.560000
vt 0.534082 0.520000
vt 0.480000 0.560000
vt 0.520000 0.560000
vt 0.500000 0.560000
vt 0.425918 0.560000
vt 0.440000 0.580000
vt 0.534082 0.540000
vt 0.500000 0.580000
vt 0.425918 0.580000
vt 0.460000 0.580000
vt 0.480000 0.580000
vt 0.534082 0.560000
vt 0.520000 0.580000
vt 0.440000 0.600000
vt 0.480000 0.600000
vt 0.500000 0.600000
vt 0.425918 0.600000
vt 0.460000 0.600000
vt 0.534082 0.580000
vt 0.520000 0.600000
vt 0.440000 0.620000
vt 0.534082 0.600000
vt 0.460000 0.620000
vt 0.480000 0.620000
vt 0.500000 0.620000
vt 0.425918 0.620000
vt 0.520000 0.620000
vt 0.440000 0.640000
vt 0.534082 0.620000
vt 0.480000 0.640000
vt 0.460000 0.640000
vt 0.500000 0.640000
vt 0.425918 0.640000
vt 0.534082 0.640000
vt 0.520000 0.640000
vt 0.460000 0.660000
vt 0.480000 0.660000
vt 0.440000 0.660000
vt 0.520000 0.660000
vt 0.500000 0.660000
vt 0.425918 0.660000
vt 0.534082 0.660000
vt 0.460000 0.680000
vt 0.440000 0.680000
vt 0.480000 0.680000
vt 0.500000 0.680000
vt 0.425918 0.680000
vt 0.534082 0.680000
vt 0.520000 0.680000
vt 0.440000 0.691149
vt 0.460000 0.694726
vt 0.480000 0.695912
vt 0.425832 0.686926
vt 0.534093 0.686926
vt 0.520000 0.691149
vt 0.500000 0.694726
vt 0.406095 0.624380
vt 0.312190 0.624380
vt 0.321579 0.616939
vt 0.336598 0.610637
vt 0.353205 0.608547
vt 0.371379 0.610637
vt 0.391125 0.616939
vt 0.500000 0.624380
vt 0.406930 0.618859
vt 0.409710 0.604424
vt 0.412846 0.591549
vt 0.416327 0.580287
vt 0.420137 0.570681
vt 0.424262 0.562769
vt 0.428687 0.556583
vt 0.433393 0.552146
vt 0.438361 0.549478
vt 0.443573 0.548587
vt 0.449008 0.549478
vt 0.454644 0.552146
vt 0.460459 0.556583
vt 0.466430 0.562769
vt 0.472533 0.570681
vt 0.478745 0.580287
vt 0.485041 0.591549
vt 0.491396 0.604424
vt 0.497784 0.618859
vt 0.687810 0.624380
vt 0.593905 0.624380
vt 0.594336 0.623719
vt 0.597501 0.618859
vt 0.607498 0.604424
vt 0.617072 0.591549
vt 0.626183 0.580287
vt 0.634797 0.570681
vt 0.642878 0.562769
vt 0.650396 0.556583
vt 0.657319 0.552146
vt 0.663623 0.549478
vt 0.669280 0.548587
vt 0.674269 0.549478
vt 0.678571 0.552146
vt 0.682168 0.556583
vt 0.685045 0.562769
vt 0.687193 0.570681
vt 0.688602 0.580287
vt 0.689266 0.591549
vt 0.689184 0.604424
vt 0.688355 0.618859
vt 0.513109 0.616939
vt 0.531280 0.610637
vt 0.548932 0.608547
vt 0.566061 0.610637
vt 0.582656 0.616939
vt 0.592968 0.623759
vt 0.479738 0.959477
vt 0.520262 0.959477
vt 0.509684 0.961263
vt 0.489879 0.959517
vt 0.500000 0.961300
vn 0.729656 0.258629 0.633019
vn 0.729656 0.258629 0.633019
vn 0.729671 0.258804 0.632931
vn 0.686457 0.256006 0.680615
vn 0.700538 0.213381 0.680966
vn 0.739797 0.212770 0.638302
vn 0.630027 0.255709 0.733265
vn 0.638829 0.216015 0.738401
vn 0.711237 0.154913 0.685670
vn 0.749711 0.157579 0.642730
vn 0.563157 0.259806 0.784446
vn 0.566136 0.221606 0.793965
vn 0.646413 0.154027 0.747279
vn 0.718509 0.084612 0.690351
vn 0.758822 0.087350 0.645414
vn 0.569099 0.158611 0.806827
vn 0.650588 0.083780 0.754795
vn 0.491695 0.268606 0.828304
vn 0.488375 0.230040 0.841767
vn 0.486148 0.168969 0.857385
vn 0.569635 0.088616 0.817106
vn 0.722227 0.011940 0.691554
vn 0.764213 0.014732 0.644796
vn 0.413083 0.240202 0.878445
vn 0.406354 0.183337 0.895134
vn 0.482813 0.099423 0.870061
vn 0.651485 0.011185 0.758579
vn 0.423019 0.280579 0.861586
vn 0.353348 0.194532 0.915042
vn 0.359670 0.248263 0.899446
vn 0.399295 0.114374 0.909661
vn 0.567218 0.016262 0.823407
vn 0.722067 -0.062618 0.688984
vn 0.765534 -0.059790 0.640611
vn 0.364091 0.292723 0.884167
vn 0.343799 0.126044 0.930546
vn 0.476868 0.027465 0.878546
vn 0.648831 -0.063270 0.758298
vn 0.561635 -0.057968 0.825352
vn 0.389955 0.042918 0.919833
vn 0.468162 -0.046427 0.882422
vn 0.717751 -0.138452 0.682396
vn 0.762475 -0.135606 0.632647
vn 0.332189 0.055010 0.941607
vn 0.642399 -0.138982 0.753663
vn 0.552714 -0.133473 0.822613
vn 0.378237 -0.030563 0.925204
vn 0.318459 -0.018110 0.947764
vn 0.456582 -0.121659 0.881324
vn 0.709069 -0.214847 0.671612
vn 0.754799 -0.212002 0.620753
vn 0.632027 -0.215237 0.744456
vn 0.540345 -0.209547 0.814934
vn 0.302593 -0.092731 0.948598
vn 0.364088 -0.105480 0.925372
vn 0.442074 -0.197529 0.874959
vn 0.695897 -0.291004 0.656539
vn 0.742359 -0.288178 0.604861
vn 0.347505 -0.181138 0.920016
vn 0.284627 -0.168167 0.943773
vn 0.617631 -0.291245 0.730554
vn 0.524494 -0.285401 0.802155
vn 0.424650 -0.273252 0.863137
vn 0.678221 -0.366068 0.637190
vn 0.599227 -0.366154 0.711939
vn 0.725122 -0.363278 0.585002
vn 0.328547 -0.256756 0.908919
vn 0.264649 -0.243642 0.933059
vn 0.505210 -0.360193 0.784235
vn 0.307339 -0.331490 0.891996
vn 0.404398 -0.347989 0.845793
vn 0.656139 -0.439167 0.613689
vn 0.703174 -0.436430 0.561316
vn 0.576934 -0.439104 0.688720
vn 0.242812 -0.318312 0.916362
vn 0.381483 -0.420882 0.823000
vn 0.284069 -0.404480 0.869311
vn 0.482633 -0.433066 0.761261
vn 0.629868 -0.509464 0.586270
vn 0.676730 -0.506791 0.534040
vn 0.550972 -0.509262 0.661122
vn 0.456993 -0.503188 0.733457
vn 0.219318 -0.391321 0.893738
vn 0.356143 -0.491098 0.794975
vn 0.258986 -0.474887 0.841076
vn 0.521659 -0.575867 0.629484
vn 0.428596 -0.569803 0.701164
vn 0.328677 -0.557875 0.762068
vn 0.599735 -0.576189 0.555269
vn 0.646120 -0.573591 0.503510
vn 0.194420 -0.461825 0.865401
vn 0.232384 -0.541940 0.807650
vn 0.489385 -0.638265 0.594239
vn 0.566154 -0.638683 0.521108
vn 0.397811 -0.632257 0.664829
vn 0.299432 -0.620556 0.724742
vn 0.168410 -0.529053 0.831710
vn 0.204590 -0.604975 0.769512
vn 0.611774 -0.636167 0.470131
vn 0.529605 -0.696427 0.484260
vn 0.454597 -0.695939 0.555887
vn 0.141601 -0.592334 0.793151
vn 0.268779 -0.678616 0.683548
vn 0.175942 -0.663456 0.727234
vn 0.574189 -0.694002 0.434360
vn 0.365047 -0.690030 0.624979
vn 0.490605 -0.749050 0.445231
vn 0.533905 -0.746719 0.396681
vn 0.417769 -0.748518 0.514966
vn 0.114307 -0.651128 0.750311
vn 0.330731 -0.742750 0.582185
vn 0.237101 -0.731674 0.639090
vn 0.146777 -0.716994 0.681451
vn 0.449685 -0.796325 0.404537
vn 0.491484 -0.794091 0.357580
vn 0.379382 -0.795777 0.472026
vn 0.086832 -0.705037 0.703835
vn 0.295289 -0.790188 0.537036
vn 0.204766 -0.779497 0.591992
vn 0.117413 -0.765347 0.632818
vn 0.059459 -0.753813 0.654393
vn 0.407352 -0.838174 0.362669
vn 0.447462 -0.836039 0.317518
vn 0.339893 -0.837634 0.427601
vn 0.259123 -0.832259 0.490103
vn 0.172118 -0.821993 0.542866
vn 0.088136 -0.808414 0.581978
vn 0.032438 -0.797347 0.602648
vn 0.299725 -0.874130 0.382180
vn 0.222597 -0.868996 0.441923
vn 0.139461 -0.859188 0.492286
vn 0.364079 -0.874642 0.320075
vn 0.402340 -0.872607 0.276912
vn 0.059194 -0.846218 0.529539
vn 0.005977 -0.835654 0.549223
vn 0.261528 -0.902928 0.341064
vn 0.324450 -0.901987 0.284872
vn 0.188394 -0.898645 0.396163
vn 0.111075 -0.888901 0.444429
vn 0.365043 -0.898542 0.243650
vn -0.015074 -0.863105 0.504800
vn 0.036981 -0.875186 0.482370
vn 0.289878 -0.920254 0.262874
vn 0.233741 -0.919538 0.315935
vn 0.167020 -0.914995 0.367271
vn 0.095408 -0.906642 0.410971
vn 0.332872 -0.918098 0.215158
vn -0.032693 -0.884019 0.466307
vn 0.026390 -0.895691 0.443893
vn -0.499161 -0.574620 -0.648575
vn -0.499161 -0.574620 -0.648575
vn -0.499161 -0.574620 -0.648575
vn -0.499161 -0.574620 -0.648575
vn -0.499161 -0.574620 -0.648575
vn -0.499161 -0.574620 -0.648575
vn -0.499161 -0.574620 -0.648576
vn -0.499161 -0.574620 -0.648575
vn -0.499161 -0.574620 -0.648575
vn 0.601357 0.079536 -0.795012
vn 0.601357 0.079536 -0.795012
vn 0.601357 0.079536 -0.795012
vn 0.601357 0.079536 -0.795012
vn 0.601357 0.079536 -0.795012
vn 0.601357 0.079536 -0.795012
vn 0.601357 0.079536 -0.795012
vn 0.601357 0.079536 -0.795012
vn 0.601357 0.079536 -0.795012
vn 0.601357 0.079536 -0.795012
vn 0.601357 0.079536 -0.795012
vn 0.601357 0.079536 -0.795012
vn 0.601357 0.079536 -0.795012
vn 0.601357 0.079536 -0.795012
vn 0.601357 0.079536 -0.795012
vn 0.601357 0.079536 -0.795012
vn 0.601357 0.079536 -0.795012
vn 0.601357 0.079536 -0.795012
vn 0.601357 0.079536 -0.795012
vn 0.601357 0.079536 -0.795012
vn 0.601357 0.079536 -0.795012
vn 0.601357 0.079536 -0.795012
vn 0.601357 0.079536 -0.795012
vn 0.601357 0.079536 -0.795012
vn 0.030234 0.995386 -0.091066
vn 0.030234 0.995386 -0.091066
vn 0.030234 0.995386 -0.091066
vn 0.030234 0.995386 -0.091066
vn 0.030234 0.995386 -0.091066
vn 0.030234 0.995386 -0.091066
vn 0.030234 0.995386 -0.091065
vn 0.030234 0.995386 -0.091066
vn 0.030234 0.995386 -0.091066
vn 0.030234 0.995386 -0.091066
vn -0.938642 0.223109 0.263009
vn -0.938642 0.223109 0.263009
vn -0.938642 0.223109 0.263009
vn -0.938642 0.223109 0.263009
vn -0.938642 0.223109 0.263009
vn -0.938642 0.223109 0.263009
vn -0.938642 0.223109 0.263009
vn -0.938642 0.223109 0.263009
vn -0.938642 0.223109 0.263009
vn -0.938642 0.223109 0.263009
vn -0.938642 0.223109 0.263009
vn -0.938642 0.223109 0.263009
vn -0.938642 0.223109 0.263009
vn -0.938642 0.223109 0.263009
vn -0.938642 0.223109 0.263009
vn -0.938642 0.223109 0.263009
vn -0.938642 0.223109 0.263009
vn -0.938642 0.223109 0.263009
vn -0.938642 0.223109 0.263009
vn -0.938642 0.223109 0.263009
vn -0.938642 0.223109 0.263009
vn -0.938642 0.223109 0.263009
vn -0.938642 0.223109 0.263009
vn -0.493442 0.396237 -0.774281
vn -0.493442 0.396237 -0.774281
vn -0.493442 0.396237 -0.774281
vn -0.493442 0.396237 -0.774281
s 1
g TEE_3D_TricuspidPosition
f 1/1/1 2/2/2 3/3/3
f 2/2/2 1/1/1 4/4/4 5/5/5 6/6/6
f 7/7/7 8/8/8 5/5/5 4/4/4
f 6/6/6 5/5/5 9/9/9 10/10/10
f 8/8/8 7/7/7 12/12/11 13/13/12
f 5/5/5 8/8/8 11/11/13 9/9/9
f 10/10/10 9/9/9 15/15/14 16/16/15
f 8/8/8 13/13/12 14/14/16 11/11/13
f 15/15/14 9/9/9 11/11/13 19/19/17
f 13/13/12 12/12/11 20/20/18 17/17/19
f 13/13/12 17/17/19 18/18/20 14/14/16
f 19/19/17 11/11/13 14/14/16 23/23/21
f 16/16/15 15/15/14 24/24/22 25/25/23
f 17/17/19 21/21/24 22/22/25 18/18/20
f 23/23/21 14/14/16 18/18/20 29/29/26
f 24/24/22 15/15/14 19/19/17 31/31/27
f 17/17/19 20/20/18 26/26/28 21/21/24
f 27/27/29 22/22/25 21/21/24 28/28/30
f 29/29/26 18/18/20 22/22/25 33/33/31
f 19/19/17 23/23/21 30/30/32 31/31/27
f 25/25/23 24/24/22 36/36/33 37/37/34
f 28/28/30 21/21/24 26/26/28 32/32/35
f 33/33/31 22/22/25 27/27/29 38/38/36
f 23/23/21 29/29/26 34/34/37 30/30/32
f 35/35/38 31/31/27 30/30/32 39/39/39
f 36/36/33 24/24/22 31/31/27 35/35/38
f 34/34/37 29/29/26 33/33/31 41/41/40
f 39/39/39 30/30/32 34/34/37 42/42/41
f 37/37/34 36/36/33 43/43/42 45/45/43
f 40/40/44 41/41/40 33/33/31 38/38/36
f 43/43/42 36/36/33 35/35/38 44/44/45
f 44/44/45 35/35/38 39/39/39 47/47/46
f 46/46/47 41/41/40 40/40/44 48/48/48
f 42/42/41 34/34/37 41/41/40 46/46/47
f 47/47/46 39/39/39 42/42/41 49/49/49
f 45/45/43 43/43/42 50/50/50 52/52/51
f 50/50/50 43/43/42 44/44/45 51/51/52
f 51/51/52 44/44/45 47/47/46 55/55/53
f 53/53/54 54/54/55 46/46/47 48/48/48
f 49/49/49 42/42/41 46/46/47 54/54/55
f 55/55/53 47/47/46 49/49/49 57/57/56
f 52/52/51 50/50/50 59/59/57 60/60/58
f 56/56/59 54/54/55 53/53/54 61/61/60
f 50/50/50 51/51/52 58/58/61 59/59/57
f 58/58/61 51/51/52 55/55/53 62/62/62
f 54/54/55 56/56/59 57/57/56 49/49/49
f 62/62/62 55/55/53 57/57/56 65/65/63
f 63/63/64 59/59/57 58/58/61 67/67/65
f 60/60/58 59/59/57 63/63/64 66/66/66
f 64/64/67 56/56/59 61/61/60 68/68/68
f 57/57/56 56/56/59 64/64/67 65/65/63
f 67/67/65 58/58/61 62/62/62 71/71/69
f 65/65/63 64/64/67 69/69/70 70/70/71
f 71/71/69 62/62/62 65/65/63 70/70/71
f 66/66/66 63/63/64 72/72/72 74/74/73
f 72/72/72 63/63/64 67/67/65 75/75/74
f 69/69/70 64/64/67 68/68/68 77/77/75
f 73/73/76 70/70/71 69/69/70 78/78/77
f 67/67/65 71/71/69 76/76/78 75/75/74
f 71/71/69 70/70/71 73/73/76 76/76/78
f 74/74/73 72/72/72 79/79/79 83/83/80
f 79/79/79 72/72/72 75/75/74 81/81/81
f 75/75/74 76/76/78 80/80/82 81/81/81
f 78/78/77 69/69/70 77/77/75 85/85/83
f 76/76/78 73/73/76 82/82/84 80/80/82
f 82/82/84 73/73/76 78/78/77 87/87/85
f 84/84/86 81/81/81 80/80/82 86/86/87
f 86/86/87 80/80/82 82/82/84 89/89/88
f 83/83/80 79/79/79 88/88/89 91/91/90
f 88/88/89 79/79/79 81/81/81 84/84/86
f 87/87/85 78/78/77 85/85/83 94/94/91
f 82/82/84 87/87/85 90/90/92 89/89/88
f 88/88/89 84/84/86 92/92/93 93/93/94
f 92/92/93 84/84/86 86/86/87 95/95/95
f 95/95/95 86/86/87 89/89/88 97/97/96
f 90/90/92 87/87/85 94/94/91 100/100/97
f 89/89/88 90/90/92 96/96/98 97/97/96
f 91/91/90 88/88/89 93/93/94 98/98/99
f 99/99/100 93/93/94 92/92/93 103/103/101
f 96/96/98 90/90/92 100/100/97 105/105/102
f 101/101/103 97/97/96 96/96/98 106/106/104
f 98/98/99 93/93/94 99/99/100 102/102/105
f 103/103/101 92/92/93 95/95/95 104/104/106
f 104/104/106 95/95/95 97/97/96 101/101/103
f 102/102/105 99/99/100 107/107/107 110/110/108
f 107/107/107 99/99/100 103/103/101 111/111/109
f 106/106/104 96/96/98 105/105/102 112/112/110
f 108/108/111 104/104/106 101/101/103 109/109/112
f 109/109/112 101/101/103 106/106/104 113/113/113
f 111/111/109 103/103/101 104/104/106 108/108/111
f 110/110/108 107/107/107 114/114/114 119/119/115
f 114/114/114 107/107/107 111/111/109 116/116/116
f 115/115/117 113/113/113 106/106/104 112/112/110
f 116/116/116 111/111/109 108/108/111 117/117/118
f 117/117/118 108/108/111 109/109/112 118/118/119
f 118/118/119 109/109/112 113/113/113 120/120/120
f 120/120/120 113/113/113 115/115/117 122/122/121
f 119/119/115 114/114/114 121/121/122 126/126/123
f 121/121/122 114/114/114 116/116/116 124/124/124
f 116/116/116 117/117/118 123/123/125 124/124/124
f 117/117/118 118/118/119 125/125/126 123/123/125
f 125/125/126 118/118/119 120/120/120 128/128/127
f 127/127/128 128/128/127 120/120/120 122/122/121
f 129/129/129 124/124/124 123/123/125 130/130/130
f 130/130/130 123/123/125 125/125/126 133/133/131
f 126/126/123 121/121/122 131/131/132 134/134/133
f 131/131/132 121/121/122 124/124/124 129/129/129
f 132/132/134 128/128/127 127/127/128 135/135/135
f 133/133/131 125/125/126 128/128/127 132/132/134
f 131/131/132 129/129/129 136/136/136 137/137/137
f 129/129/129 130/130/130 138/138/138 136/136/136
f 130/130/130 133/133/131 139/139/139 138/138/138
f 134/134/133 131/131/132 137/137/137 140/140/140
f 141/141/141 142/142/142 132/132/134 135/135/135
f 133/133/131 132/132/134 142/142/142 139/139/139
f 143/143/143 137/137/137 136/136/136 144/144/144
f 144/144/144 136/136/136 138/138/138 145/145/145
f 145/145/145 138/138/138 139/139/139 149/149/146
f 146/146/147 140/140/140 137/137/137 143/143/143
f 142/142/142 141/141/141 147/147/148 148/148/149
f 149/149/146 139/139/139 142/142/142 148/148/149
s off
f 147/150/150 152/208/151 150/205/152 146/151/153 143/152/154 144/153/155 145/154/156 149/155/157 148/156/158
f 146/177/159 150/206/160 151/207/161 3/178/162 2/179/163 6/180/164 10/181/165 16/182/166 25/183/167 37/184/168 45/185/169 52/186/170 60/187/171 66/188/172 74/189/173 83/190/174 91/191/175 98/192/176 102/193/177 110/194/178 119/195/179 126/196/180 134/197/181 140/198/182
f 3/178/183 151/207/184 153/209/185 32/157/186 26/199/187 20/200/188 12/201/189 7/202/190 4/203/191 1/204/192
f 32/157/193 153/209/194 152/208/195 147/150/196 141/158/197 135/159/198 127/160/199 122/161/200 115/162/201 112/163/202 105/164/203 100/165/204 94/166/205 85/167/206 77/168/207 68/169/208 61/170/209 53/171/210 48/172/211 40/173/212 38/174/213 27/175/214 28/176/215
f 152/208/216 153/209/217 151/207/218 150/205/219
