# Medical Simulation Corparation
v 40.8952 155.553 41.5833
v -11.0739 148.167 50.1719
v 20.6346 159.814 5.00343
v -5.34994 156.121 9.29776
v -11.0739 148.167 50.1719
v -19.8304 199.945 41.7184
v -5.34994 156.121 9.29776
v -9.72819 182.01 5.07099
v -19.8304 199.945 41.7184
v 32.1387 207.331 33.1297
v -9.72819 182.01 5.07099
v 16.2563 185.704 0.776667
v 32.1387 207.331 33.1297
v 40.8952 155.553 41.5833
v 16.2563 185.704 0.776667
v 20.6346 159.814 5.00343
v 40.8952 155.553 41.5833
v 32.1387 207.331 33.1297
v -11.0739 148.167 50.1719
v -19.8304 199.945 41.7184
v 20.6346 159.814 5.00343
v -5.34994 156.121 9.29776
v 0.373969 164.076 -31.5764
v -5.34994 156.121 9.29776
v -9.72819 182.01 5.07099
v 0.373969 164.076 -31.5764
v -9.72819 182.01 5.07099
v 16.2563 185.704 0.776667
v 0.373969 164.076 -31.5764
v 16.2563 185.704 0.776667
v 20.6346 159.814 5.00343
v 0.373969 164.076 -31.5764

vt 0.25 0.5
vt 0.375 0.5
vt 0.375 0.75
vt 0.4375 0.75
vt 0.375 0.5
vt 0.5 0.5
vt 0.4375 0.75
vt 0.5 0.75
vt 0.5 0.5
vt 0.625 0.5
vt 0.5 0.75
vt 0.5625 0.75
vt 0.625 0.5
vt 0.75 0.5
vt 0.5625 0.75
vt 0.625 0.75
vt 0.5 0
vt 0.75 0.25
vt 0.25 0.25
vt 0.5 0.5
vt 0.375 0.75
vt 0.4375 0.75
vt 0.5 1
vt 0.4375 0.75
vt 0.5 0.75
vt 0.5 1
vt 0.5 0.75
vt 0.5625 0.75
vt 0.5 1
vt 0.5625 0.75
vt 0.625 0.75
vt 0.5 1

vn 0.110145 -0.978392 -0.174979
vn 0.110145 -0.978392 -0.174979
vn 0.110145 -0.978392 -0.174979
vn 0.110145 -0.978392 -0.174979
vn -0.966185 -0.191574 -0.172584
vn -0.966185 -0.191574 -0.172584
vn -0.966185 -0.191574 -0.172584
vn -0.966185 -0.191574 -0.172584
vn -0.200264 0.85709 -0.474648
vn -0.200264 0.85709 -0.474648
vn -0.200265 0.85709 -0.474648
vn -0.200265 0.85709 -0.474648
vn 0.876066 0.0702725 -0.477044
vn 0.876066 0.0702725 -0.477044
vn 0.876066 0.0702725 -0.477044
vn 0.876066 0.0702725 -0.477044
vn 0.135117 0.18187 0.973995
vn 0.135117 0.18187 0.973995
vn 0.135117 0.18187 0.973995
vn 0.135117 0.18187 0.973995
vn 0.110145 -0.978392 -0.174979
vn 0.110145 -0.978392 -0.174979
vn 0.110145 -0.978392 -0.174979
vn -0.966185 -0.191574 -0.172584
vn -0.966185 -0.191574 -0.172584
vn -0.966185 -0.191574 -0.172584
vn -0.200264 0.85709 -0.474648
vn -0.200264 0.85709 -0.474648
vn -0.200264 0.85709 -0.474648
vn 0.876066 0.0702725 -0.477044
vn 0.876066 0.0702725 -0.477044
vn 0.876066 0.0702725 -0.477044

f 1/1/1 2/2/2 3/3/3
f 2/2/2 4/4/4 3/3/3
f 5/5/5 6/6/6 7/7/7
f 6/6/6 8/8/8 7/7/7
f 9/9/9 10/10/10 11/11/11
f 10/10/10 12/12/12 11/11/11
f 13/13/13 14/14/14 15/15/15
f 14/14/14 16/16/16 15/15/15
f 17/17/17 18/18/18 19/19/19
f 18/18/18 20/20/20 19/19/19
f 21/21/21 22/22/22 23/23/23
f 24/24/24 25/25/25 26/26/26
f 27/27/27 28/28/28 29/29/29
f 30/30/30 31/31/31 32/32/32

